<?xml version="1.0" encoding="utf-8"?>
<svg width="841.89px" height="595.28px" viewBox="0 0 841.89 595.28" xmlns="http://www.w3.org/2000/svg">
  <defs>
    <clipPath id="clippath0" transform="">
      <path d="M 0 595.28 L 841.89 595.28 L 841.89 0 L 0 0 Z" style="fill: none; clip-rule: nonzero;"/>
    </clipPath>
    <clipPath id="clippath1" transform="">
      <path d="M 658.174 434.837 C 658.174 409.29 677.318 388.436 700.773 388.436 L 700.773 388.436 C 724.244 388.436 743.372 409.29 743.372 434.837 L 743.372 434.837 C 743.372 460.4 724.244 481.254 700.773 481.254 L 700.773 481.254 C 677.318 481.254 658.174 460.4 658.174 434.837" style="fill: none; clip-rule: nonzero;"/>
    </clipPath>
    <radialGradient id="shading0" gradientUnits="userSpaceOnUse" cx="0" cy="0" r="1" fx="0.360883" fy="-0.296415" fr="0">
      <stop offset="0" style="stop-color: rgb(255, 255, 255);"/>
      <stop offset="0.3726190476190476" style="stop-color: rgb(255, 219, 184);"/>
      <stop offset="0.6976190476190476" style="stop-color: rgb(255, 188, 127);"/>
      <stop offset="1" style="stop-color: rgb(255, 161, 78);"/>
    </radialGradient>
    <clipPath id="clippath2" transform="">
      <path d="M 0 595.28 L 841.89 595.28 L 841.89 0 L 0 0 Z" style="fill: none; clip-rule: nonzero;"/>
    </clipPath>
  </defs>
  <g class="page-1" transform="matrix(1, 0, 0, -1, 0, 595.28)">
    <g transform="">
      <path d="M 0 595.28 L 841.89 595.28 L 841.89 0 L 0 0 Z" style="fill: none;"/>
    </g>
    <g style="clip-path: url('#clippath0');">
      <g transform="translate(679.5215 224.4834)">
        <path d="M 0 0 C -0.356 0.802 -0.696 2.066 -1.037 3.776 C -5.008 0.899 -8.979 -1.135 -12.887 -2.375 C -13.389 -2.527 -13.905 -2.666 -14.422 -2.805 L 1.736 -2.805 C 0.881 -1.617 0.301 -0.675 0 0" style="fill: rgb(44, 46, 53); fill-rule: evenodd; fill-opacity: 1;"/>
      </g>
    </g>
    <g style="clip-path: url('#clippath0');">
      <g transform="translate(679.5215 224.4834)">
        <path d="M 0 0 C -0.356 0.802 -0.696 2.066 -1.037 3.776 C -5.008 0.899 -8.979 -1.135 -12.887 -2.375 C -13.389 -2.527 -13.905 -2.666 -14.422 -2.805 L 1.736 -2.805 C 0.881 -1.617 0.301 -0.675 0 0 Z" style="fill: none; stroke: rgb(44, 46, 53); stroke-opacity: 1; stroke-miterlimit: 2.613; stroke-width: 1.793px; stroke-dashoffset: 0px;"/>
      </g>
    </g>
    <g style="clip-path: url('#clippath0');">
      <g transform="translate(659.3408 232.2881)">
        <path d="M 0 0 C 3.404 0 6.517 0.616 9.435 1.832 C 12.335 3.072 14.378 4.588 15.61 6.338 C 16.842 8.121 17.409 10.439 17.409 13.243 L 17.409 16.898 C 13.243 15.772 8.899 14.775 4.393 13.916 C -1.734 12.7 -5.657 11.477 -7.278 10.285 C -8.997 9.045 -9.823 7.659 -9.823 6.087 C -9.823 4.296 -8.997 2.845 -7.343 1.702 C -5.657 0.567 -3.226 0 0 0" style="fill: rgb(44, 46, 53); fill-rule: evenodd; fill-opacity: 1;"/>
      </g>
    </g>
    <g style="clip-path: url('#clippath0');">
      <g transform="translate(659.3408 232.2881)">
        <path d="M 0 0 C 3.404 0 6.517 0.616 9.435 1.832 C 12.335 3.072 14.378 4.588 15.61 6.338 C 16.842 8.121 17.409 10.439 17.409 13.243 L 17.409 16.898 C 13.243 15.772 8.899 14.775 4.393 13.916 C -1.734 12.7 -5.657 11.477 -7.278 10.285 C -8.997 9.045 -9.823 7.659 -9.823 6.087 C -9.823 4.296 -8.997 2.845 -7.343 1.702 C -5.657 0.567 -3.226 0 0 0 Z" style="fill: none; stroke: rgb(44, 46, 53); stroke-opacity: 1; stroke-miterlimit: 2.613; stroke-width: 1.793px; stroke-dashoffset: 0px;"/>
      </g>
    </g>
    <g style="clip-path: url('#clippath0');">
      <g transform="translate(586.2676 325.1778)">
        <path d="M 0 0 C 10.099 -5.787 17.587 -14.661 22.467 -26.656 L -15.691 -33.554 C -17.021 -30.085 -18.431 -27.548 -19.89 -25.936 C -22.305 -23.261 -25.271 -21.21 -28.757 -19.743 C -32.258 -18.301 -36.181 -17.571 -40.509 -17.571 C -50.267 -17.571 -57.805 -20.772 -63.008 -27.175 C -66.946 -31.94 -68.94 -39.39 -68.94 -49.577 C -68.94 -62.196 -66.558 -70.82 -61.856 -75.497 C -57.14 -80.173 -50.543 -82.507 -42.032 -82.507 C -33.766 -82.507 -27.508 -80.635 -23.277 -76.851 C -19.047 -73.089 -15.983 -67.618 -14.055 -60.421 L 23.795 -69.733 C 21.267 -78.35 17.263 -85.547 11.801 -91.342 C 6.863 -96.556 0.838 -100.602 -6.233 -103.499 L 46.407 -103.499 C 44.053 -102.743 41.981 -101.781 40.216 -100.598 C 35.337 -97.339 32.889 -93.287 32.889 -88.48 C 32.889 -83.95 34.64 -80.254 38.157 -77.345 C 41.707 -74.419 48.175 -72.279 57.674 -70.868 C 69.037 -69.134 76.412 -67.935 79.784 -67.254 C 83.14 -66.565 86.722 -65.649 90.482 -64.539 C 90.482 -61.734 89.721 -59.781 88.197 -58.663 C 86.641 -57.553 83.95 -56.978 80.076 -56.978 C 75.115 -56.978 71.403 -57.593 68.907 -58.769 C 66.979 -59.708 65.406 -61.467 64.207 -64.021 L 35.271 -61.734 C 36.374 -57.934 37.946 -54.942 40.006 -52.763 C 42.048 -50.574 44.998 -48.702 48.889 -47.089 C 51.66 -45.93 55.502 -45.022 60.365 -44.406 C 65.195 -43.767 70.447 -43.45 76.121 -43.45 C 85.198 -43.45 92.525 -43.823 98.004 -44.593 C 103.516 -45.354 108.135 -46.951 111.782 -49.383 C 114.375 -51.061 116.402 -53.427 117.909 -56.499 C 119.368 -59.587 120.098 -62.505 120.098 -65.317 L 120.098 -91.552 C 120.098 -94.332 120.373 -96.528 120.811 -98.109 C 121.249 -99.551 122.15 -101.354 123.496 -103.499 L 132.66 -103.499 L 132.66 -45.841 L 161.968 -45.841 L 161.968 -55.372 C 164.788 -51.255 167.722 -48.41 170.705 -46.846 C 173.703 -45.29 177.399 -44.503 181.809 -44.503 C 184.14 -44.503 186.583 -44.767 189.135 -45.289 L 189.135 5.431 L -13.455 5.431 C -8.405 4.057 -3.915 2.25 0 0" style="fill: rgb(44, 46, 53); fill-rule: evenodd; fill-opacity: 1;"/>
      </g>
    </g>
    <g style="clip-path: url('#clippath0');">
      <g transform="translate(586.2676 325.1778)">
        <path d="M 0 0 C 10.099 -5.787 17.587 -14.661 22.467 -26.656 L -15.691 -33.554 C -17.021 -30.085 -18.431 -27.548 -19.89 -25.936 C -22.305 -23.261 -25.271 -21.21 -28.757 -19.743 C -32.258 -18.301 -36.181 -17.571 -40.509 -17.571 C -50.267 -17.571 -57.805 -20.772 -63.008 -27.175 C -66.946 -31.94 -68.94 -39.39 -68.94 -49.577 C -68.94 -62.196 -66.558 -70.82 -61.856 -75.497 C -57.14 -80.173 -50.543 -82.507 -42.032 -82.507 C -33.766 -82.507 -27.508 -80.635 -23.277 -76.851 C -19.047 -73.089 -15.983 -67.618 -14.055 -60.421 L 23.795 -69.733 C 21.267 -78.35 17.263 -85.547 11.801 -91.342 C 6.863 -96.556 0.838 -100.602 -6.233 -103.499 L 46.407 -103.499 C 44.053 -102.743 41.981 -101.781 40.216 -100.598 C 35.337 -97.339 32.889 -93.287 32.889 -88.48 C 32.889 -83.95 34.64 -80.254 38.157 -77.345 C 41.707 -74.419 48.175 -72.279 57.674 -70.868 C 69.037 -69.134 76.412 -67.935 79.784 -67.254 C 83.14 -66.565 86.722 -65.649 90.482 -64.539 C 90.482 -61.734 89.721 -59.781 88.197 -58.663 C 86.641 -57.553 83.95 -56.978 80.076 -56.978 C 75.115 -56.978 71.403 -57.593 68.907 -58.769 C 66.979 -59.708 65.406 -61.467 64.207 -64.021 L 35.271 -61.734 C 36.374 -57.934 37.946 -54.942 40.006 -52.763 C 42.048 -50.574 44.998 -48.702 48.889 -47.089 C 51.66 -45.93 55.502 -45.022 60.365 -44.406 C 65.195 -43.767 70.447 -43.45 76.121 -43.45 C 85.198 -43.45 92.525 -43.823 98.004 -44.593 C 103.516 -45.354 108.135 -46.951 111.782 -49.383 C 114.375 -51.061 116.402 -53.427 117.909 -56.499 C 119.368 -59.587 120.098 -62.505 120.098 -65.317 L 120.098 -91.552 C 120.098 -94.332 120.373 -96.528 120.811 -98.109 C 121.249 -99.551 122.15 -101.354 123.496 -103.499 L 132.66 -103.499 L 132.66 -45.841 L 161.968 -45.841 L 161.968 -55.372 C 164.788 -51.255 167.722 -48.41 170.705 -46.846 C 173.703 -45.29 177.399 -44.503 181.809 -44.503 C 184.14 -44.503 186.583 -44.767 189.135 -45.289 L 189.135 5.431 L -13.455 5.431 C -8.405 4.057 -3.915 2.25 0 0 Z" style="fill: none; stroke: rgb(44, 46, 53); stroke-opacity: 1; stroke-miterlimit: 2.613; stroke-width: 1.793px; stroke-dashoffset: 0px;"/>
      </g>
    </g>
    <g style="clip-path: url('#clippath0');">
      <g transform="translate(773.5547 261.6602)">
        <path d="M 0 0 C -3.68 1.103 -6.613 1.646 -8.785 1.646 C -12.871 1.646 -16.048 0.43 -18.317 -1.978 C -21.543 -5.382 -23.164 -11.769 -23.164 -21.104 L -23.164 -39.981 L 1.848 -39.981 L 1.848 3.044 Z" style="fill: rgb(44, 46, 53); fill-rule: evenodd; fill-opacity: 1;"/>
      </g>
    </g>
    <g style="clip-path: url('#clippath0');">
      <g transform="translate(773.5547 261.6602)">
        <path d="M 0 0 C -3.68 1.103 -6.613 1.646 -8.785 1.646 C -12.871 1.646 -16.048 0.43 -18.317 -1.978 C -21.543 -5.382 -23.164 -11.769 -23.164 -21.104 L -23.164 -39.981 L 1.848 -39.981 L 1.848 3.044 L 0 0 Z" style="fill: none; stroke: rgb(44, 46, 53); stroke-opacity: 1; stroke-miterlimit: 2.613; stroke-width: 1.793px; stroke-dashoffset: 0px;"/>
      </g>
    </g>
    <g style="clip-path: url('#clippath0');">
      <g transform="translate(429.6074 221.6787)">
        <path d="M 0 0 L 79.921 0 C 79.905 0.006 79.89 0.011 79.874 0.017 C 70.246 3.615 61.914 9.937 54.911 18.981 C 47.925 28.027 44.424 39.584 44.424 53.671 C 44.424 72.482 50.566 86.957 62.87 97.032 C 69.496 102.463 77.612 106.419 87.187 108.93 L -6.981 108.93 C -1.97 107.678 2.425 106.068 6.185 104.091 C 16.445 98.693 22.54 90.102 24.502 78.326 L -20.096 76.396 C -21.278 81.503 -23.775 85.231 -27.584 87.557 C -31.345 89.859 -36.597 91.018 -43.259 91.018 C -48.787 91.018 -52.92 90.175 -55.692 88.433 C -58.48 86.714 -59.874 84.591 -59.874 82.119 C -59.874 80.312 -58.723 78.707 -56.438 77.248 C -54.201 75.74 -48.933 74.354 -40.552 73.074 C -19.885 69.759 -5.085 66.403 3.867 63.023 C 12.814 59.628 19.331 55.453 23.399 50.429 C 27.452 45.428 29.526 39.819 29.526 33.611 C 29.526 26.333 26.787 19.622 21.373 13.479 C 16.214 7.634 9.083 3.151 0 0" style="fill: rgb(44, 46, 53); fill-rule: evenodd; fill-opacity: 1;"/>
      </g>
    </g>
    <g style="clip-path: url('#clippath0');">
      <g transform="translate(429.6074 221.6787)">
        <path d="M 0 0 L 79.921 0 C 79.905 0.006 79.89 0.011 79.874 0.017 C 70.246 3.615 61.914 9.937 54.911 18.981 C 47.925 28.027 44.424 39.584 44.424 53.671 C 44.424 72.482 50.566 86.957 62.87 97.032 C 69.496 102.463 77.612 106.419 87.187 108.93 L -6.981 108.93 C -1.97 107.678 2.425 106.068 6.185 104.091 C 16.445 98.693 22.54 90.102 24.502 78.326 L -20.096 76.396 C -21.278 81.503 -23.775 85.231 -27.584 87.557 C -31.345 89.859 -36.597 91.018 -43.259 91.018 C -48.787 91.018 -52.92 90.175 -55.692 88.433 C -58.48 86.714 -59.874 84.591 -59.874 82.119 C -59.874 80.312 -58.723 78.707 -56.438 77.248 C -54.201 75.74 -48.933 74.354 -40.552 73.074 C -19.885 69.759 -5.085 66.403 3.867 63.023 C 12.814 59.628 19.331 55.453 23.399 50.429 C 27.452 45.428 29.526 39.819 29.526 33.611 C 29.526 26.333 26.787 19.622 21.373 13.479 C 16.214 7.634 9.083 3.151 0 0 Z" style="fill: none; stroke: rgb(44, 46, 53); stroke-opacity: 1; stroke-miterlimit: 2.613; stroke-width: 1.793px; stroke-dashoffset: 0px;"/>
      </g>
    </g>
    <g style="clip-path: url('#clippath0');">
      <g transform="translate(337.2651 227.5791)">
        <path d="M 0 0 C -10.042 7.424 -15.715 16.866 -17.037 28.343 L 27.978 30.434 C 28.951 25.012 30.945 20.887 33.935 18.025 C 38.774 13.43 45.776 11.16 54.813 11.16 C 61.548 11.16 66.751 12.319 70.431 14.67 C 74.071 17.028 75.878 19.752 75.878 22.84 C 75.878 25.781 74.192 28.424 70.691 30.742 C 67.189 33.076 59.133 35.265 46.441 37.339 C 25.693 40.8 10.909 45.371 2.059 51.109 C -6.84 56.855 -11.298 64.143 -11.298 73.041 C -11.298 78.885 -9.029 84.404 -4.441 89.591 C 0.114 94.771 6.954 98.847 16.121 101.838 C 17.446 102.268 18.851 102.662 20.319 103.029 L -32.841 103.029 L -32.841 -5.9 L 11.736 -5.9 C 7.043 -4.3 3.131 -2.334 0 0" style="fill: rgb(44, 46, 53); fill-rule: evenodd; fill-opacity: 1;"/>
      </g>
    </g>
    <g style="clip-path: url('#clippath0');">
      <g transform="translate(337.2651 227.5791)">
        <path d="M 0 0 C -10.042 7.424 -15.715 16.866 -17.037 28.343 L 27.978 30.434 C 28.951 25.012 30.945 20.887 33.935 18.025 C 38.774 13.43 45.776 11.16 54.813 11.16 C 61.548 11.16 66.751 12.319 70.431 14.67 C 74.071 17.028 75.878 19.752 75.878 22.84 C 75.878 25.781 74.192 28.424 70.691 30.742 C 67.189 33.076 59.133 35.265 46.441 37.339 C 25.693 40.8 10.909 45.371 2.059 51.109 C -6.84 56.855 -11.298 64.143 -11.298 73.041 C -11.298 78.885 -9.029 84.404 -4.441 89.591 C 0.114 94.771 6.954 98.847 16.121 101.838 C 17.446 102.268 18.851 102.662 20.319 103.029 L -32.841 103.029 L -32.841 -5.9 L 11.736 -5.9 C 7.043 -4.3 3.131 -2.334 0 0 Z" style="fill: none; stroke: rgb(44, 46, 53); stroke-opacity: 1; stroke-miterlimit: 2.613; stroke-width: 1.793px; stroke-dashoffset: 0px;"/>
      </g>
    </g>
    <g style="clip-path: url('#clippath0');">
      <g transform="translate(544.7539 535.4512)">
        <path d="M 0 0 L 3.016 0.462 C 3.145 -0.114 3.291 -0.705 3.485 -1.257 C -242.169 -72.888 -387.157 -258.489 -406.074 -382.575 C -420.063 -507.77 -296.351 -513.687 -205.52 -474.986 C -1.912 -405.778 165.761 -130.335 181.533 27.159 L 183.527 27.881 L 203.789 -1.24 C 184.58 -155.055 27.605 -403.453 -194.375 -477.718 C -293.384 -519.239 -428.249 -512.893 -412.996 -378.562 C -392.199 -244.225 -272.198 -75.335 0 0" style="fill: rgb(216, 217, 218); fill-rule: evenodd; fill-opacity: 1;"/>
      </g>
    </g>
    <g transform="">
      <path d="M 658.174 434.837 C 658.174 409.29 677.318 388.436 700.773 388.436 L 700.773 388.436 C 724.244 388.436 743.372 409.29 743.372 434.837 L 743.372 434.837 C 743.372 460.4 724.244 481.254 700.773 481.254 L 700.773 481.254 C 677.318 481.254 658.174 460.4 658.174 434.837" style="fill: none;"/>
    </g>
    <g style="clip-path: url('#clippath1');">
      <g transform="matrix(44.5446358 0 0 -44.5446358 700.1062622 440.1784973)">
        <rect x="-15.716960069970984" y="-3.4819344667310066" width="18.899918809079136" height="13.363674195760288" style="fill: url('#shading0');"/>
      </g>
    </g>
    <g transform="">
      <path d="M 0 595.28 L 841.89 595.28 L 841.89 0 L 0 0 Z" style="fill: none;"/>
    </g>
    <g style="clip-path: url('#clippath2');">
      <g transform="translate(181.7812 224.4024)">
        <path d="M 0 0 L -42.923 0 L -42.923 11.792 C -50.072 6.986 -54.708 3.307 -60.641 0.811 C -66.605 -1.702 -73.689 -2.958 -81.908 -2.958 C -94.957 -2.958 -105.137 0.389 -112.447 7.075 C -119.773 13.77 -123.438 23.853 -123.438 37.298 L -123.438 106.895 L -82.151 106.895 L -82.151 63.031 C -82.151 57.495 -81.973 53.014 -81.616 49.505 C -81.26 46.027 -80.433 43.061 -79.104 40.67 C -77.872 38.457 -75.894 36.764 -73.301 35.629 C -70.658 34.485 -67.011 33.91 -62.326 33.91 C -59.376 33.91 -55.988 34.502 -52.033 35.629 C -48.054 36.771 -46.303 38.327 -42.923 40.272 L -42.923 106.895 L 0 106.895 Z" style="fill: rgb(44, 46, 53); fill-rule: evenodd; fill-opacity: 1;"/>
      </g>
    </g>
    <g style="clip-path: url('#clippath2');">
      <g transform="translate(282.0059 290.2295)">
        <path d="M 0 0 L -39.033 0 L -38.741 63.672 L -22.466 63.672 L -22.612 39.025 L 22.686 39.025 L 22.572 61.792 C 22.759 63.162 22.872 64.58 22.872 66.022 C 22.872 67.457 22.759 68.867 22.572 70.245 L 22.572 70.942 L 22.451 70.942 C 20.319 83.424 10.212 92.947 -1.831 92.947 L -59.506 92.947 C -73.105 92.947 -84.218 80.822 -84.218 66.022 C -84.218 64.677 -84.128 63.372 -83.958 62.092 L -84.712 62.092 L -84.712 0 L -120.13 0 L -120.13 -30.198 L -84.712 -30.198 L -84.712 -122.48 L -38.757 -122.48 L -38.757 -30.198 L 0 -30.198 Z" style="fill: rgb(44, 46, 53); fill-rule: evenodd; fill-opacity: 1;"/>
      </g>
    </g>
  </g>
</svg>